<mxfile host="app.diagrams.net" modified="2023-04-27T12:49:24.648Z" agent="Mozilla/5.0 (Windows NT 10.0; Win64; x64) AppleWebKit/537.36 (KHTML, like Gecko) Chrome/112.0.0.0 Safari/537.36" version="21.1.5" etag="H_9kUvmntILJMbAkhVix" type="github">
  <diagram name="PÃ¡gina-1" id="lI0G87rRp7210kkJz6mY">
    <mxGraphModel>
      <root>
        <mxCell id="0" />
        <mxCell id="1" parent="0" />
      </root>
    </mxGraphModel>
  </diagram>
</mxfile>
